<?xml version="1.0" encoding="UTF-8"?>
<svg xmlns="http://www.w3.org/2000/svg" width="410" height="390" xmlns:xlink="http://www.w3.org/1999/xlink" viewBox="0 0 410 390">
  <defs>
    <clipPath id="clippath">
      <path d="m184.563,377.483L20.532,271.644c-9.683-6.248-15.532-16.983-15.532-28.507v-23.83c0-14.568,9.301-27.51,23.108-32.155l166.074-55.872c7.019-2.361,14.617-2.361,21.636,0l155.296,52.246c1.106.372,2.131.952,3.019,1.708l19.377,16.494c7.29,6.205,11.49,15.295,11.49,24.868v10.566c0,11.253-5.58,21.774-14.896,28.086l-164.969,111.778c-12.21,8.273-28.18,8.452-40.573.456Z" fill="#231f20" stroke="#0c1b10" stroke-miterlimit="10" stroke-width="4"/>
    </clipPath>
    <clipPath id="clippath-1">
      <path d="m19.726,202.374c-9.05-4.716-14.726-14.073-14.726-24.278v-29.745c0-12.599,8.599-23.571,20.832-26.583l173.1-42.614c3.745-.922,7.66-.907,11.398.044l55.58,15.137c.559.152,1.077.427,1.517.805l64.237,55.16,39.576,33.094c8.32,6.958,7.05,20.103-2.448,25.339l-147.467,81.51c-10.193,5.634-22.532,5.776-32.853.379L19.726,202.374Z" fill="none" stroke="#310c44" stroke-miterlimit="10" stroke-width="4"/>
    </clipPath>
    <clipPath id="clippath-2">
      <path d="m188.211,200.227L20.808,134.59c-9.535-3.739-15.808-12.936-15.808-23.178v-34.964c0-11.867,8.376-22.085,20.013-24.412L193.214,18.396c7.781-1.556,15.792-1.556,23.573,0l15.265,3.053c9.173,1.835,16.543,8.656,19.08,17.66l12.727,45.161c2.443,8.668,7.463,16.388,14.395,22.136l31.596,26.2c10.326,8.563,7.999,25.006-4.298,30.367l-84.02,36.63c-10.585,4.615-22.569,4.839-33.32.624Z" fill="none" stroke="#000" stroke-miterlimit="10" stroke-width="4"/>
    </clipPath>
    <clipPath id="clippath-3">
      <path d="m128.004,31.415l28.987,7.451c3.049.784,4.198,4.51,2.119,6.874l-9.119,10.375c-1.382,1.573-1.403,3.921-.048,5.517l8.553,10.08c2.241,2.64.523,6.707-2.932,6.942,0,0-61.369,4.339-61.191,4.286.28-.085-5.089,2.867-10.098,5.607-5.437,2.974-11.531,4.541-17.728,4.561l-66.362.219c-.338,0-1.01-52.761,2.196-52.988l125.622-8.923c.118-.008-.114-.03,0,0Z" fill="#54bbd4" stroke="#2494c0" stroke-miterlimit="10" stroke-width="4"/>
    </clipPath>
    <clipPath id="clippath-4">
      <path d="m391.89,200.638l-115.311-95.619c-5.843-4.845-10.074-11.352-12.133-18.657l-14.364-50.973c-1.704-6.048,1.816-12.333,7.863-14.04l53.855-15.196c2.839-.801,5.862-.656,8.61.414l19.743,7.684c2.967,1.155,6.246,1.23,9.263.212l23.511-7.931c3.087-1.041,6.446-.938,9.463.292l9.559,3.896c7.891,3.216,13.05,10.889,13.05,19.41v164.348c0,6.775-7.894,10.484-13.11,6.16Z" fill="none" stroke="#231f20" stroke-miterlimit="10" stroke-width="4"/>
    </clipPath>
  </defs>
  <g isolation="isolate">
    <g id="Layer_1" data-name="Layer 1">
      <g>
        <path d="m184.563,377.483L20.532,271.644c-9.683-6.248-15.532-16.983-15.532-28.507v-23.83c0-14.568,9.301-27.51,23.108-32.155l166.074-55.872c7.019-2.361,14.617-2.361,21.636,0l155.296,52.246c1.106.372,2.131.952,3.019,1.708l19.377,16.494c7.29,6.205,11.49,15.295,11.49,24.868v10.566c0,11.253-5.58,21.774-14.896,28.086l-164.969,111.778c-12.21,8.273-28.18,8.452-40.573.456Z" fill="#231f20" stroke-width="4" />
        <g clip-path="url(#clippath)">
          <polygon points="-107.728 59.912 445.814 65.793 429.484 524.197 -107.728 537.911 -107.728 59.912" fill="#5d7f7c"/>
          <path d="m407.167,183.852l-39.519-3.462-7.604,32.954-140.279,77.638c-9.104,5.039-14.731,14.645-14.675,25.05l.272,49.921c.057,10.47,11.767,16.646,20.44,10.779l179.197-121.223,2.167-71.657Z" fill="#231f20" mix-blend-mode="overlay" opacity=".2" stroke="#fff" stroke-miterlimit="10" stroke-width="4"/>
          <path d="m365.753,208.496c22.701-9.751,23.201-9.751,33.836-1.245,7.699,6.158,6.78-12.275,6.78-12.275l-35.497-17.359-5.119,30.88Z" fill="#fff" opacity=".2" stroke="#fff" stroke-miterlimit="10" stroke-width="4"/>
        </g>
        <path d="m184.563,377.483L20.532,271.644c-9.683-6.248-15.532-16.983-15.532-28.507v-23.83c0-14.568,9.301-27.51,23.108-32.155l166.074-55.872c7.019-2.361,14.617-2.361,21.636,0l155.296,52.246c1.106.372,2.131.952,3.019,1.708l19.377,16.494c7.29,6.205,11.49,15.295,11.49,24.868v10.566c0,11.253-5.58,21.774-14.896,28.086l-164.969,111.778c-12.21,8.273-28.18,8.452-40.573.456Z" fill="none" stroke="#0c1b10" stroke-miterlimit="10" stroke-width="4"/>
      </g>
    </g>
    <g id="Layer_4" data-name="Layer 4">
      <g>
        <g clip-path="url(#clippath-1)">
          <rect x="224.517" y="-6.446" width="260.186" height="325.496" fill="#6390a8"/>
          <rect x="-21.449" y="66.238" width="465.501" height="237.45" fill="#475453"/>
          <path d="m388.53,197.851l-164.573,90.706c-8.521,4.697-18.957-1.468-18.957-11.197v-52.421c0-11.091,6.559-21.133,16.715-25.59l65.9-28.92,23.963-36.926,76.952,64.348Z" fill="#231f20" mix-blend-mode="overlay" opacity=".2" stroke="#fff" stroke-miterlimit="10" stroke-width="4"/>
          <path d="m309.864,161.191c22.701-9.751,22.701-9.251,33.336-.745,7.699,6.158,7.28-12.775,7.28-12.775l-35.497-17.359-5.119,30.88Z" fill="#fff" opacity=".2" stroke="#fff" stroke-miterlimit="10" stroke-width="4"/>
        </g>
        <path d="m19.726,202.374c-9.05-4.716-14.726-14.073-14.726-24.278v-29.745c0-12.599,8.599-23.571,20.832-26.583l173.1-42.614c3.745-.922,7.66-.907,11.398.044l55.58,15.137c.559.152,1.077.427,1.517.805l64.237,55.16,39.576,33.094c8.32,6.958,7.05,20.103-2.448,25.339l-147.467,81.51c-10.193,5.634-22.532,5.776-32.853.379L19.726,202.374Z" fill="none" stroke="#310c44" stroke-miterlimit="10" stroke-width="4"/>
      </g>
    </g>
    <g id="Layer_3" data-name="Layer 3">
      <g>
        <g clip-path="url(#clippath-2)">
          <rect x="-12.716" y="-10.326" width="340.299" height="253.327" fill="#a9a48d"/>
          <path d="m317.86,158.439l-94.829,40.648c-8.535,3.659-18.031-2.602-18.031-11.889v-54.534c0-9.265,5.898-17.503,14.67-20.487l26.183-8.909,21.227-19.157,12.896,23.794,40.349,33.647c5.738,4.785,4.4,13.942-2.467,16.886Z" fill="#231f20" mix-blend-mode="overlay" opacity=".2" stroke="#fff" stroke-miterlimit="10" stroke-width="4"/>
          <path d="m240.716,104.736c22.06-7.375,24.926-7.623,33.336-1.245,7.856,5.958,7.28-12.275,7.28-12.275l-35.497-17.359-5.119,30.88Z" fill="#fff" opacity=".2" stroke="#fff" stroke-miterlimit="10" stroke-width="4"/>
          <path d="m12.068,54.625c-1.843.369-1.967,2.956-.168,3.5l178.693,54.028c9.395,2.841,19.42,2.841,28.815,0l37.397-12.515c6.064-2.029,9.471-8.459,7.744-14.616l-16.656-59.398c-.183-.654-.718-1.15-1.385-1.283l-41.154-8.231c-.234-.047-.475-.047-.708,0l-118.379,23.676L12.068,54.625Z" fill="#90cc8e" stroke="#71a271" stroke-miterlimit="10" stroke-width="4"/>
          <g>
            <path d="m128.004,31.415l28.987,7.451c3.049.784,4.198,4.51,2.119,6.874l-9.119,10.375c-1.382,1.573-1.403,3.921-.048,5.517l8.553,10.08c2.241,2.64.523,6.707-2.932,6.942,0,0-61.369,4.339-61.191,4.286.28-.085-5.089,2.867-10.098,5.607-5.437,2.974-11.531,4.541-17.728,4.561l-66.362.219c-.338,0-1.01-52.761,2.196-52.988l125.622-8.923c.118-.008-.114-.03,0,0Z" fill="#54bbd4" stroke-width="4" />
            <g clip-path="url(#clippath-3)">
              <path d="m161.019,102.74L19.539,60.242c-4.135-1.242-3.839-7.193.399-8.019L196.558,17.817c.77-.15,1.565-.119,2.321.091l94.052,26.098c4.711,1.307,5.013,7.872.443,9.607l-129.103,49.011c-1.042.395-2.185.436-3.252.116Z" fill="#5eb7db" stroke="#2494c0" stroke-miterlimit="10" stroke-width="4"/>
            </g>
            <path d="m128.004,31.415l28.987,7.451c3.049.784,4.198,4.51,2.119,6.874l-9.119,10.375c-1.382,1.573-1.403,3.921-.048,5.517l8.553,10.08c2.241,2.64.523,6.707-2.932,6.942,0,0-61.369,4.339-61.191,4.286.28-.085-5.089,2.867-10.098,5.607-5.437,2.974-11.531,4.541-17.728,4.561l-66.362.219c-.338,0-1.01-52.761,2.196-52.988l125.622-8.923c.118-.008-.114-.03,0,0Z" fill="none" stroke="#2494c0" stroke-miterlimit="10" stroke-width="4"/>
          </g>
        </g>
        <path d="m188.211,200.227L20.808,134.59c-9.535-3.739-15.808-12.936-15.808-23.178v-34.964c0-11.867,8.376-22.085,20.013-24.412L193.214,18.396c7.781-1.556,15.792-1.556,23.573,0l15.265,3.053c9.173,1.835,16.543,8.656,19.08,17.66l12.727,45.161c2.443,8.668,7.463,16.388,14.395,22.136l31.596,26.2c10.326,8.563,7.999,25.006-4.298,30.367l-84.02,36.63c-10.585,4.615-22.569,4.839-33.32.624Z" fill="none" stroke="#000" stroke-miterlimit="10" stroke-width="4"/>
      </g>
    </g>
    <g id="Layer_2" data-name="Layer 2">
      <g>
        <g clip-path="url(#clippath-4)">
          <rect x="194.909" y="-38.963" width="268.415" height="166.2" fill="#7b6d77" stroke="#120c18" stroke-miterlimit="10"/>
          <path d="m393.496,21.947l-30.766,17.742c-1.653.953-3.601,1.256-5.465.851l-19.015-4.134c-2.959-.643-6.019.513-7.814,2.952l-20.321,27.623c-.636.864-1.446,1.586-2.377,2.117l-30.767,17.566c-6.431,3.672-7.223,12.632-1.536,17.376l123.732,103.198c2.353,1.963,5.928.288,5.926-2.776l-.087-175.87c-.003-5.906-6.395-9.596-11.511-6.646Z" fill="#91818d" stroke="#120c18" stroke-miterlimit="10" stroke-width="2" />
        </g>
        <path d="m391.89,200.638l-115.311-95.619c-5.843-4.845-10.074-11.352-12.133-18.657l-14.364-50.973c-1.704-6.048,1.816-12.333,7.863-14.04l53.855-15.196c2.839-.801,5.862-.656,8.61.414l19.743,7.684c2.967,1.155,6.246,1.23,9.263.212l23.511-7.931c3.087-1.041,6.446-.938,9.463.292l9.559,3.896c7.891,3.216,13.05,10.889,13.05,19.41v164.348c0,6.775-7.894,10.484-13.11,6.16Z" fill="none" stroke="#231f20" stroke-miterlimit="10" stroke-width="4"/>
      </g>
      <path d="m308.41,17.59l5.091-1.032c1.69-.343,3.431-.352,5.125-.028l18.398,3.52c.194.037.391.056.588.056h11.628c.403,0,.802-.078,1.176-.229l13.128-5.322c2.504-1.015,5.031,1.407,4.122,3.952h0c-.244.682-.716,1.258-1.337,1.631l-9.196,5.518c-.486.292-1.043.446-1.61.446h-19.448c-.262,0-.522.033-.775.098l-20.793,5.319c-1.34.343-2.747-.235-3.458-1.421l-4.697-7.829c-1.111-1.852-.056-4.247,2.061-4.676Z" fill="#fff" stroke="#000" stroke-miterlimit="10"/>
    </g>
  </g>
</svg>